<svg id="Layer_1" data-name="Layer 1" xmlns="http://www.w3.org/2000/svg" viewBox="0 0 272.57 241.26"><defs><style>.cls-1{fill:#009a46;}.cls-2{fill:#ff5805;}.cls-3{fill:#f5afcb;}.cls-4{fill:#ff9b00;}</style></defs><path class="cls-1" d="M48.23,79.89c0-9.37,2.74-17.37,8.49-23.12l10,10C55.59,77.86,65.31,112.34,97,144.06s66.19,41.43,77.31,30.32l10,10c-18.76,18.76-61.49,5.45-97.26-30.33C62.24,129.23,48.23,101.07,48.23,79.89Z"/><path class="cls-2" d="M111.29,193c-9.37,0-17.37-2.74-23.13-8.49l10-10c11.11,11.11,45.59,1.39,77.31-30.32S216.89,78,205.78,66.89l10-10c18.77,18.76,5.45,61.49-30.33,97.26C160.63,179,132.47,193,111.29,193Z"/><path class="cls-3" d="M188.76,139.84c-6.07-17.48-18.47-36.16-34.92-52.6-35.77-35.78-78.5-49.1-97.26-30.33h0c-1.33,1.34-.18,4.65,2.58,7.41s6.07,3.9,7.4,2.57c11.12-11.11,45.6-1.39,77.31,30.33,15,15,26.18,31.75,31.57,47.25,4.72,13.59,4.26,24.55-1.24,30.05h0c-1.34,1.33-.18,4.65,2.57,7.4s6.07,3.91,7.41,2.57C193.79,174.88,195.42,159,188.76,139.84Z"/><path class="cls-4" d="M215.76,56.91c-9.63-9.63-25.49-11.26-44.67-4.59-17.47,6.06-36.16,18.47-52.6,34.91C82.72,123,69.4,165.73,88.16,184.5h0c1.34,1.33,4.65.18,7.41-2.57s3.91-6.07,2.57-7.41C87,163.41,96.75,128.93,128.47,97.21c15-15,31.75-26.18,47.25-31.57,13.59-4.71,24.55-4.26,30.06,1.24h0c1.33,1.33,4.65.18,7.4-2.58S217.09,58.24,215.76,56.91Z"/></svg>